<svg width="24" height="25" viewBox="0 0 24 25" fill="none" xmlns="http://www.w3.org/2000/svg">
<path d="M6.1248 12.65C6.55814 11.55 7.07897 10.4916 7.6873 9.47495C8.29564 8.45828 8.98314 7.49995 9.7498 6.59995L8.4498 6.32495C8.11647 6.25828 7.79147 6.27495 7.4748 6.37495C7.15814 6.47495 6.88314 6.64162 6.6498 6.87495L3.4998 10.025C3.2498 10.275 3.15397 10.575 3.2123 10.925C3.27064 11.275 3.46647 11.5166 3.7998 11.65L6.1248 12.65ZM20.8248 2.89995C19.0581 2.81662 17.379 3.15828 15.7873 3.92495C14.1956 4.69162 12.7748 5.69995 11.5248 6.94995C10.7248 7.74995 10.0206 8.61662 9.4123 9.54995C8.80397 10.4833 8.2748 11.4666 7.8248 12.5C7.74147 12.7166 7.6998 12.9375 7.6998 13.1625C7.6998 13.3875 7.78314 13.5833 7.9498 13.75L11.0748 16.8749C11.2415 17.0416 11.4373 17.1249 11.6623 17.1249C11.8873 17.1249 12.1081 17.0833 12.3248 16.9999C13.3581 16.5499 14.3415 16.0208 15.2748 15.4125C16.2081 14.8041 17.0748 14.1 17.8748 13.3C19.1248 12.05 20.1331 10.6291 20.8998 9.03745C21.6665 7.44578 22.0081 5.76662 21.9248 3.99995C21.9248 3.86662 21.8915 3.73328 21.8248 3.59995C21.7581 3.46662 21.6748 3.34995 21.5748 3.24995C21.4748 3.14995 21.3581 3.06662 21.2248 2.99995C21.0915 2.93328 20.9581 2.89995 20.8248 2.89995ZM14.4748 10.35C14.0915 9.96662 13.8998 9.49578 13.8998 8.93745C13.8998 8.37912 14.0915 7.90828 14.4748 7.52495C14.8581 7.14162 15.329 6.94995 15.8873 6.94995C16.4456 6.94995 16.9165 7.14162 17.2998 7.52495C17.6831 7.90828 17.8748 8.37912 17.8748 8.93745C17.8748 9.49578 17.6831 9.96662 17.2998 10.35C16.9165 10.7333 16.4456 10.925 15.8873 10.925C15.329 10.925 14.8581 10.7333 14.4748 10.35ZM12.1748 18.7L13.1748 21.025C13.3081 21.3583 13.5498 21.5583 13.8998 21.625C14.2498 21.6916 14.5498 21.6 14.7998 21.35L17.9498 18.2C18.1831 17.9666 18.3498 17.6874 18.4498 17.3624C18.5498 17.0374 18.5665 16.7083 18.4998 16.3749L18.2498 15.075C17.3331 15.8416 16.3706 16.5291 15.3623 17.1375C14.354 17.7458 13.2915 18.2666 12.1748 18.7ZM4.0498 16.5499C4.63314 15.9666 5.34147 15.6708 6.1748 15.6625C7.00814 15.6541 7.71647 15.9416 8.2998 16.525C8.88314 17.1083 9.1748 17.8166 9.1748 18.65C9.1748 19.4833 8.88314 20.1916 8.2998 20.775C7.4998 21.5749 6.55397 22.0499 5.4623 22.1999C4.37064 22.35 3.2748 22.5 2.1748 22.65C2.3248 21.5499 2.47897 20.4541 2.6373 19.3624C2.79564 18.2708 3.26647 17.3333 4.0498 16.5499Z" fill="#E97030"/>
</svg>
